<svg xmlns="http://www.w3.org/2000/svg" xmlns:xlink="http://www.w3.org/1999/xlink" id="Layer_1" data-name="Layer 1" viewBox="0 0 138.94 89.7"><defs><style>.cls-1{fill:#f59a1a}.cls-2{fill:#ffe51f}.cls-3{fill:#fff}.cls-4{fill:#6bb52d}.cls-5{fill:#a81468}.cls-6{fill:#df2225}.cls-7{fill:#53aa32}.cls-8{fill:#4da5dd}.cls-9{fill:none;mask:url(#mask)}.cls-10{filter:url(#luminosity-invert-noclip)}</style><filter id="luminosity-invert-noclip" width="142.56" height="89.63" x="-5.57" y="0" color-interpolation-filters="sRGB" filterUnits="userSpaceOnUse"><feColorMatrix result="cm" values="-1 0 0 0 1 0 -1 0 0 1 0 0 -1 0 1 0 0 0 1 0"/><feFlood flood-color="#fff" result="bg"/><feBlend in="cm" in2="bg"/></filter><mask id="mask" width="142.56" height="89.63" x="-5.57" y="0" maskUnits="userSpaceOnUse"><g class="cls-10"><path d="m94.35,33.68l-65.7-1.36,65.7-1.36v2.73Zm-32.85,27.56l-67.08.85,65.79.82,1.29-1.68Zm-33-28.58l68.45-1.34,1.93,3.24-70.38-1.9ZM101.73,4.26L29.11,3.14l71.74-1.12.62,1.55c.1.32.19.45.26.69Zm-65.72,5.42l51.62-1.62,1.61,2.75-53.23-1.13Zm73.68,12.31l-95.85-.93,95.38-.8.47,1.72Zm3.43,21.86v4.26l-102.78-1.7,102.78-2.56Zm-15.28,42.79l1.56,2.98-69.59-1.51,68.04-1.47ZM16.28,57.21l92.13-.9-3.27,1.55-88.86-.65Zm13.66,7.86l71.82-.89v2.48l-71.82-1.59Zm56.03,15.86l-80.14-1.44,80.14-1.44v2.88Z" class="cls-3"/></g></mask></defs><g class="cls-9"><g><g><path d="m102.8,30.95c-12.42-6.43-29.83-13.52-43.77-14.92C67.56,5.58,80.89-.48,94.38.02c3.84,7.51,6.74,18.14,8.42,30.93Z" class="cls-5"/><path d="m131.78,23.2c-4.58,7.09-12.34,14.91-22.58,22.77-.64-13.97-3.2-32.6-8.96-45.38,13.25,2.11,25.27,10.76,31.55,22.61Z" class="cls-6"/><path d="m136.99,43.99c.01,8.21-2.29,16.25-6.59,23.19-8.43-.42-19.08-3.23-31.01-8.17,11.78-7.54,26.63-19.08,34.82-30.46,1.85,4.93,2.78,10.11,2.78,15.44Z" class="cls-1"/><path d="m126.96,71.96c-8.53,10.44-21.86,16.51-35.35,16.01-3.84-7.51-6.74-18.14-8.42-30.93,12.42,6.43,29.83,13.52,43.77,14.92Z" class="cls-2"/><path d="m85.76,87.4c-13.25-2.11-25.27-10.76-31.55-22.61,4.58-7.09,12.34-14.91,22.58-22.77.64,13.97,3.2,32.6,8.96,45.38Z" class="cls-4"/><path d="m86.6,28.98c-11.78,7.54-26.63,19.08-34.82,30.46-4.77-12.52-3.33-27.29,3.81-38.62,8.43.42,19.08,3.23,31.01,8.17Z" class="cls-8"/></g><polygon points="102.12 1.12 16.45 2.37 102.12 3.63 102.12 1.12" class="cls-6"/><polygon points="83.73 7.33 29.32 8.54 82.34 9.71 83.73 7.33" class="cls-5"/><polygon points="102.27 18.79 14.01 19.93 102.8 21.08 102.27 18.79" class="cls-6"/><polygon points="109.91 42.99 10.51 44.71 109.91 46.43 109.91 42.99" class="cls-6"/><polygon points="96.42 63.14 26.09 64.73 101.77 66.66 96.42 63.14" class="cls-2"/><polygon points="109.91 55.25 16.45 56.77 107.07 57.76 109.91 55.25" class="cls-1"/><polygon points="92.45 85.16 29.94 86.76 92.45 88.36 92.45 85.16" class="cls-2"/><polygon points="84.33 77.09 13.52 78.71 85.23 80.34 84.33 77.09" class="cls-2"/><polygon points="56.76 71.13 8.42 71.88 57.91 72.64 56.76 71.13" class="cls-4"/><polygon points="46.23 50.52 0 51.18 46.41 51.89 46.23 50.52" class="cls-8"/><polygon points="54.73 82.99 20.16 83.5 55.99 84.01 54.73 82.99" class="cls-4"/><polygon points="57.33 14.14 3.1 14.8 56.12 15.44 57.33 14.14" class="cls-5"/><polygon points="53.38 36.53 15.81 37.09 53.38 37.65 53.38 36.53" class="cls-8"/><polygon points="57 26.12 12.18 26.8 57 27.48 57 26.12" class="cls-8"/><polygon points="54.94 59.7 3.01 60.5 52.82 62.08 54.94 59.7" class="cls-4"/></g></g><g><rect width="23.46" height="25.69" x="107.6" y="57.31" class="cls-3"/><path d="m119.64,51.11c-10.66,0-19.29,8.64-19.29,19.29s8.64,19.29,19.29,19.29,19.29-8.64,19.29-19.29-8.64-19.29-19.29-19.29Zm10.37,9.02c0,.24-.09.48-.26.66-1.4,1.53-8.2,9.32-12.45,19.87-.51,1.27-2.27,1.35-2.9.14-1.21-2.34-3.07-5.53-5.46-8.35-.68-.8-.72-1.96-.11-2.81h0c.84-1.17,2.54-1.28,3.53-.23,2,2.14,3.42,4.15,3.62,4.44.01.02.04.02.05,0,.32-.57,4.3-7.51,12.35-14.46.63-.55,1.62-.1,1.62.74h0Z" class="cls-7"/></g></svg>