<?xml version="1.0" encoding="UTF-8"?>
<svg id="Layer_1" data-name="Layer 1" xmlns="http://www.w3.org/2000/svg" viewBox="0 0 138.94 89.7">
  <defs>
    <style>
      .cls-1 {
        fill: #f59a1a;
      }

      .cls-2 {
        fill: #ffe51f;
      }

      .cls-3 {
        fill: #fff;
      }

      .cls-4 {
        fill: #6bb52d;
      }

      .cls-5 {
        fill: #a81468;
      }

      .cls-6 {
        fill: #df2225;
      }

      .cls-7 {
        fill: #53aa32;
      }

      .cls-8 {
        fill: #4da5dd;
      }
    </style>
  </defs>
  <g>
    <path class="cls-5" d="m102.8,30.95c-3.18-1.64-7.6-3.8-12.74-5.99-6.08-2.59-11.91-4.67-17.32-6.19-4.92-1.38-9.51-2.3-13.71-2.75.9-1.09,1.85-2.13,2.86-3.14,4.04-4.04,8.75-7.21,13.98-9.43,5.42-2.29,11.18-3.46,17.12-3.46.46,0,.93,0,1.39.02,3.84,7.51,6.74,18.14,8.42,30.93Z"/>
    <path class="cls-6" d="m131.78,23.2c-4.58,7.09-12.34,14.91-22.58,22.77-.17-3.57-.51-8.48-1.19-14.03-.8-6.56-1.91-12.65-3.3-18.09-1.26-4.96-2.76-9.39-4.48-13.26,3.39.56,6.7,1.52,9.89,2.87,5.24,2.22,9.94,5.39,13.98,9.43,3.07,3.07,5.64,6.53,7.67,10.31Z"/>
    <path class="cls-1" d="m136.99,43.99c0,5.94-1.16,11.7-3.46,17.12-.89,2.11-1.94,4.13-3.14,6.06-8.43-.42-19.08-3.23-31.01-8.17,3.01-1.93,7.09-4.68,11.55-8.04,5.28-3.97,10-7.98,14.02-11.9,3.66-3.57,6.76-7.09,9.24-10.51,1.85,4.93,2.78,10.11,2.78,15.44Z"/>
    <path class="cls-2" d="m126.96,71.96c-.9,1.09-1.85,2.13-2.86,3.14-4.04,4.04-8.75,7.21-13.98,9.43-5.42,2.29-11.18,3.46-17.12,3.46-.46,0-.93,0-1.39-.02-3.84-7.51-6.74-18.14-8.42-30.93,3.18,1.64,7.6,3.8,12.74,5.99,6.08,2.59,11.91,4.67,17.32,6.19,4.92,1.38,9.51,2.3,13.71,2.75Z"/>
    <path class="cls-4" d="m85.76,87.4c-3.39-.56-6.7-1.52-9.89-2.87-5.24-2.22-9.94-5.39-13.98-9.43-3.07-3.07-5.64-6.53-7.67-10.31,4.58-7.09,12.34-14.91,22.58-22.77.17,3.57.51,8.48,1.19,14.03.8,6.56,1.91,12.65,3.3,18.09,1.26,4.96,2.76,9.39,4.48,13.26Z"/>
    <path class="cls-8" d="m86.6,28.98c-3.01,1.93-7.09,4.68-11.55,8.04-5.28,3.97-10,7.98-14.02,11.9-3.66,3.57-6.76,7.09-9.24,10.51-1.85-4.93-2.78-10.11-2.78-15.44,0-5.94,1.16-11.7,3.46-17.12.89-2.11,1.94-4.13,3.14-6.06,8.43.42,19.08,3.23,31.01,8.17Z"/>
  </g>
  <polygon class="cls-6" points="102.12 1.12 16.45 2.37 102.12 3.63 102.12 1.12"/>
  <polygon class="cls-5" points="83.73 7.33 29.32 8.54 82.34 9.71 83.73 7.33"/>
  <polygon class="cls-6" points="102.27 18.79 14.01 19.93 102.8 21.08 102.27 18.79"/>
  <polygon class="cls-3" points="94.35 30.95 28.65 32.31 94.35 33.68 94.35 30.95"/>
  <polygon class="cls-6" points="109.91 42.99 10.51 44.71 109.91 46.43 109.91 42.99"/>
  <polygon class="cls-2" points="96.42 63.14 26.09 64.73 101.77 66.66 96.42 63.14"/>
  <polygon class="cls-1" points="109.91 55.25 16.45 56.77 107.07 57.76 109.91 55.25"/>
  <polygon class="cls-2" points="92.45 85.16 29.94 86.76 92.45 88.36 92.45 85.16"/>
  <polygon class="cls-2" points="84.33 77.09 13.52 78.71 85.23 80.34 84.33 77.09"/>
  <path class="cls-3" d="m100.85,2.02L29.11,3.14l72.62,1.12c-.07-.25-.17-.37-.26-.69"/>
  <polygon class="cls-3" points="87.63 8.07 36.01 9.69 89.24 10.81 87.63 8.07"/>
  <polyline class="cls-3" points="109.22 20.27 13.84 21.07 109.69 21.99"/>
  <polygon class="cls-3" points="96.96 31.31 28.51 32.65 98.89 34.56 96.96 31.31"/>
  <polygon class="cls-3" points="113.11 43.85 10.33 46.41 113.11 48.12 113.11 43.85"/>
  <polygon class="cls-3" points="101.77 64.18 29.95 65.07 101.77 66.66 101.77 64.18"/>
  <polygon class="cls-3" points="108.41 56.31 16.28 57.21 105.14 57.86 108.41 56.31"/>
  <polygon class="cls-3" points="97.83 86.64 29.8 88.12 99.39 89.62 97.83 86.64"/>
  <polygon class="cls-3" points="85.98 78.06 5.84 79.5 85.98 80.93 85.98 78.06"/>
  <polygon class="cls-4" points="56.76 71.13 8.42 71.88 57.91 72.64 56.76 71.13"/>
  <polygon class="cls-8" points="46.23 50.52 0 51.18 46.41 51.89 46.23 50.52"/>
  <polygon class="cls-4" points="54.73 82.99 20.16 83.5 55.99 84.01 54.73 82.99"/>
  <polygon class="cls-5" points="57.33 14.14 3.1 14.8 56.12 15.44 57.33 14.14"/>
  <polygon class="cls-8" points="53.38 36.53 15.81 37.09 53.38 37.65 53.38 36.53"/>
  <polygon class="cls-8" points="57 26.12 12.18 26.8 57 27.48 57 26.12"/>
  <g>
    <rect class="cls-3" x="107.6" y="57.31" width="23.46" height="25.69"/>
    <path class="cls-7" d="m119.64,51.11c-10.66,0-19.29,8.64-19.29,19.29s8.64,19.29,19.29,19.29,19.29-8.64,19.29-19.29-8.64-19.29-19.29-19.29Zm10.37,9.02c0,.24-.09.48-.26.66-1.4,1.53-8.2,9.32-12.45,19.87-.51,1.27-2.27,1.35-2.9.14-1.21-2.34-3.07-5.53-5.46-8.35-.68-.8-.72-1.96-.11-2.81h0c.84-1.17,2.54-1.28,3.53-.23,2,2.14,3.42,4.15,3.62,4.44.01.02.04.02.05,0,.32-.57,4.3-7.51,12.35-14.46.63-.55,1.62-.1,1.62.74h0Z"/>
  </g>
  <polygon class="cls-4" points="54.94 59.7 3.01 60.5 52.82 62.08 54.94 59.7"/>
  <path class="cls-3" d="m61.5,61.23l-67.08.85,65.79.82"/>
</svg>